<?xml version="1.0" standalone="no"?>
<!DOCTYPE svg PUBLIC "-//W3C//DTD SVG 20010904//EN"
 "http://www.w3.org/TR/2001/REC-SVG-20010904/DTD/svg10.dtd">
<svg version="1.0" xmlns="http://www.w3.org/2000/svg"
 width="500.000000pt" height="500.000000pt" viewBox="0 0 500.000000 500.000000"
 preserveAspectRatio="xMidYMid meet">
<metadata>
Created by potrace 1.14, written by Peter Selinger 2001-2017
</metadata>
<g transform="translate(0.000000,500.000000) scale(0.100000,-0.100000)"
fill="#000000" stroke="none">
<path d="M1085 4982 c-49 -30 -83 -78 -90 -125 -4 -23 -5 -242 -3 -487 l3
-445 26 -56 c36 -76 86 -129 161 -170 l63 -34 1255 0 1255 0 63 34 c75 41 125
94 161 170 l26 56 3 445 c2 245 0 464 -3 488 -7 50 -57 112 -105 132 -18 7
-53 11 -85 8 -46 -4 -62 -10 -92 -39 -61 -58 -63 -70 -63 -359 l0 -260 -159 0
-159 0 -4 208 c-3 192 -5 210 -27 254 -33 67 -90 129 -152 163 -50 28 -61 30
-159 30 -89 0 -111 -3 -145 -22 -71 -38 -123 -91 -157 -161 l-33 -66 -3 -203
-3 -203 -159 0 -159 0 -3 203 -3 203 -33 66 c-34 70 -86 123 -157 161 -34 19
-56 22 -145 22 -98 0 -109 -2 -159 -30 -62 -34 -119 -96 -152 -163 -22 -44
-24 -62 -27 -254 l-4 -208 -159 0 -159 0 0 260 c0 289 -2 301 -64 360 -32 30
-43 34 -99 38 -48 2 -69 -1 -92 -16z"/>
<path d="M1575 3326 c-64 -20 -100 -42 -148 -90 -72 -72 -88 -118 -103 -296
-25 -286 -85 -726 -194 -1420 -32 -206 -77 -494 -100 -640 -49 -310 -60 -355
-103 -412 -74 -96 -156 -128 -332 -128 -134 0 -165 -7 -208 -48 -86 -81 -76
-203 22 -269 l34 -23 2057 0 2057 0 34 23 c52 35 79 82 79 139 0 55 -15 91
-57 130 -43 41 -74 48 -208 48 -176 0 -258 32 -332 128 -43 57 -54 102 -103
412 -23 146 -68 434 -100 640 -109 694 -169 1134 -194 1420 -10 121 -18 166
-36 203 -30 64 -102 134 -170 166 l-55 26 -900 2 c-706 1 -909 -1 -940 -11z
m1085 -1359 c153 -55 252 -154 307 -307 l23 -65 0 -627 0 -628 -490 0 -490 0
0 628 0 627 23 65 c55 153 154 252 307 307 50 17 86 23 160 23 74 0 110 -6
160 -23z"/>
</g>
</svg>
